<?xml version="1.0" encoding="UTF-8" standalone="no"?>
<svg
   width="263.242mm"
   version="1.2"
   height="78.212181mm"
   viewBox="0 0 2632.42 782.12181"
   id="svg995"
   sodipodi:docname="sticker.svg"
   inkscape:version="1.3.2 (1:1.3.2+202311252150+091e20ef0f)"
   xmlns:inkscape="http://www.inkscape.org/namespaces/inkscape"
   xmlns:sodipodi="http://sodipodi.sourceforge.net/DTD/sodipodi-0.dtd"
   xmlns="http://www.w3.org/2000/svg"
   xmlns:svg="http://www.w3.org/2000/svg"
   xmlns:rdf="http://www.w3.org/1999/02/22-rdf-syntax-ns#"
   xmlns:cc="http://creativecommons.org/ns#"
   xmlns:dc="http://purl.org/dc/elements/1.1/">
  <sodipodi:namedview
     id="namedview1"
     pagecolor="#ffffff"
     bordercolor="#666666"
     borderopacity="1.0"
     inkscape:showpageshadow="2"
     inkscape:pageopacity="0.0"
     inkscape:pagecheckerboard="0"
     inkscape:deskcolor="#d1d1d1"
     inkscape:document-units="mm"
     inkscape:zoom="0.76387252"
     inkscape:cx="497.46521"
     inkscape:cy="82.474495"
     inkscape:window-width="1848"
     inkscape:window-height="1016"
     inkscape:window-x="72"
     inkscape:window-y="27"
     inkscape:window-maximized="1"
     inkscape:current-layer="svg995" />
  <title
     id="title1">FreeCAD SVG Export</title>
  <desc
     id="desc1">Drawing page: Page exported from FreeCAD document: pin</desc>
  <defs
     id="defs1" />
  <g
     id="layer4"
     transform="translate(-209.79658,-636.4413)"
     style="fill:#000000">
    <path
       d="m 2842.2166,1265.3573 v 153.192 h -496.853 c -7.411,-0.01 -16.5658,-3.2806 -19.1355,-4.396 -2.5697,-1.1154 -10.9854,-5.5424 -10.9854,-5.5424 l -9.4681,-5.1306 -14.135,-8.625 -13.119,-9.906 -12.113,-11.116 -6.36,-6.732 -1.612,1.544 -10.129,9.073 -11.103,8.473 -11.866,7.497 -12.127,6.501 -19.29,8.43 -19.6782,5.8896 c -7.6682,2.2292 -12.7799,4.023 -22.4875,4.0404 h -836.5033 c -34.5718,0.083 -66.9857,-0.237 -103.475,-0.237 l -20.039,0.109 -10.634,-0.231 -11.581,-1.293 -7.789,-1.889 -7.493,-2.842 -7.083,-3.75 -8.263,-5.974 -5.54,-5.207 -4.981,-5.762 -3.394,-4.807 -2.94,-5.098 -2.657,-5.762 -2.124,-5.98 -4.431,-14.539 -2.634,8.663 -2.972,8.389 -3.718,8.085 -5.464,8.842 -4.601,5.71 -5.121,5.25 -8.083,6.453 -6.661,3.968 -7.087,3.147 -7.411,2.281 -6.824,1.346 -6.915,0.739 -10.449,0.347 -20.5541,0.042 h -72.52996 l -381.63496,-1.048 -11.844,-0.164 -21.441,-1.49 -15.507,-2.085 -15.23,-2.675 -14.83,-3.263 -14.56,-3.893 -52.18,-19.817 -48.49,-27.726 -43.63,-34.935 -37.67,-41.274 -22.73,-33.012 -19.14,-35.785 -15.11,-37.334 -10.45,-38.106 -5.87,-38.6943 -1.69,-39.1008 2.58,-38.8827 6.89,-38.35533 11.1,-37.3561 15.18,-35.8918 19.1,-34.171 22.64,-31.926 12.36,-14.358 14.75,-15.261 15.24,-14.73 14.34,-12.338 20.53,-15.161 21.4,-13.634 22.26,-12.066 23.13,-10.522 3.52,-1.438 3.44,-1.351 2.63,-0.995 8.37,-2.441 8.64,-1.157 8.68,0.164 v -89.835 h 199.175 v 86.197 l 20.826,6.128 6.834,2.397 4.318,1.784 5.221,2.209 5.559,2.407 29.274,14.531 27.729,17.298 26.224,19.989 24.319,22.269 22.277,24.424 19.998,26.323 17.374,27.869 14.663,29.386 18.355,51.8678 9.269,46.98603 9.29996,0.081 21.204,0.2288 10.847,0.4266 12.681,1.7805 9.246,2.685 8.785,3.9387 7.863,4.8971 7.14896,5.8912 6.309,6.7826 5.3601,7.5553 4.787,8.7931 3.843,9.245 0.114,-0.3779 3.853,-9.9935 5.297,-9.3085 3.672,-4.9415 4.12,-4.5752 5.334,-4.9307 5.776,-4.4627 7.351,-4.5718 6.519,-3.1522 6.794,-2.5082 7.556,-1.9409 7.721,-1.1167 10.134,-0.4884 14.9,-0.049 14.921,0.05 10.213,0.4952 7.564,1.0813 7.411,1.8582 12.228,4.8828 6.803,3.8136 5.908,4.0557 5.467,4.4799 4.992,4.9895 4.407,5.5126 5.364,9.0038 3.834,9.7545 0.363,1.2017 3.483,-8.6046 4.67,-8.4678 5.842,-7.706 9.686,-9.262 10.946,-7.3815 6.375,-3.1864 6.646,-2.5766 8.647,-2.2586 8.874,-1.0725 8.446,-0.3607 11.171,-0.236 13.884,-0.067 h 79.05 l 16.393,0.1857 24.299,0.678 11.0864,1.3317 10.762,2.9758 10.1956,4.5527 1.3392,0.7435 23.9982,-8.5668 26.6273,-5.4946 18.7141,-1.1778 16.8818,0.9317 16.8452,2.2427 17.9311,4.4894 13.5693,5.2447 12.9892,6.5507 -0.915,-111.84193 h 398.2746 l -0.999,122.13643 23.16,-12.5046 29.592,-10.476 30.691,-5.809 16.091,-0.8202 15.816,0.5163 15.85,1.0853 15.774,2.3562 29.754,8.8156 14.42,6.3102 13.77,7.6252 12.893,8.8287 11.984,10.0269 10.914,11.0412 9.845,12.0045 15.234,-17.4625 22.204,-18.8851 12.281,-7.9936 12.935,-6.8875 27.554,-10.3598 28.552,-5.7685 15.908,-1.0493 16.013,0.1883 15.907,0.7743 15.997,2.1076 17.144,4.3008 16.666,6.0656 11.611,5.4509 V 888.85427 h 185.843 v 126.38833 l 8.44,-0.7746 18.21,-0.4511 18.05,0.7655 19.63,3.1765 22.08,7.362 20.69,10.6582 19.07,14.1576 16.37,17.212 13.35,19.769 10.01,21.6515 6.7,22.0581 4.11,22.683 0.86,12.633 0.28,25.168 0.21,32.366 0.06,41.68"
       id="path1008"
       style="font-style:normal;font-weight:400;font-size:31.75px;font-family:'Sans Serif';display:inline;fill:#000000;fill-rule:evenodd;stroke:none;stroke-width:7;stroke-linecap:round;stroke-linejoin:bevel;stroke-opacity:1" />
  </g>
  <g
     id="g2036"
     transform="translate(-209.79658,-636.4413)">
    <path
       style="font-style:normal;font-weight:400;font-size:31.75px;font-family:'Sans Serif';fill:#00694c;fill-opacity:1;fill-rule:evenodd;stroke:none;stroke-width:7;stroke-linecap:round;stroke-linejoin:bevel;stroke-opacity:1"
       d="m 522.61682,693.35377 h 86.675 m -86.675,391.47753 V 693.35377 m 86.675,0 v 391.47753 m 0,-391.47753 v 391.47753 h -86.675 V 693.35377 h 86.675 m 0,391.47753 h -86.675"
       id="path2006"
       inkscape:export-filename="Page.svg"
       inkscape:export-xdpi="16"
       inkscape:export-ydpi="16" />
    <path
       style="font-style:normal;font-weight:400;font-size:31.75px;font-family:'Sans Serif';fill:#00694c;fill-opacity:1;fill-rule:evenodd;stroke:none;stroke-width:7;stroke-linecap:round;stroke-linejoin:bevel;stroke-opacity:1"
       d="m 1114.2928,1075.3063 14.541,0.049 m 203.534,-0.049 -0.7,2.1431 -0.553,1.734 -12.874,41.3295 -14.369,46.1419 -16.93,54.384 -44.026,141.446 -31.776,0.242 -19.792,0.107 -7.832,-0.17 -4.371,-0.488 -0.986,-0.239 -0.949,-0.36 -0.896,-0.475 -1.275,-0.922 -1.311,-1.231 -1.151,-1.332 -0.419,-0.594 -0.364,-0.63 -0.523,-1.136 -0.419,-1.179 -7.773,-25.52 -8.766,-29.023 -10.126,-33.909 -14.73,-49.715 -8.154,-28.06 -5.029,-18.094 -2.799,-11.583 -0.055,-0.112 -0.102,-0.072 -0.124,-0.015 -0.116,0.045 -0.08,0.096 -0.902,2.211 -1.328,4.431 -1.877,7.227 -6.609,23.956 -22.116,73.272 -23.999,79.035 -1.272,3.591 -1.592,3.461 -0.895,1.449 -1.261,1.564 -1.404,1.44 -1.334,1.065 -0.898,0.535 -0.956,0.424 -0.999,0.308 -1.956,0.386 -1.982,0.212 -7.165,0.238 -20.329,0.041 h -31.13196 l -44.118,-141.685 -16.94702,-54.479 -14.344,-46.2288 -12.83,-41.4198 -0.45,-1.7468 -0.454,-2.1902 32.74302,0.2852 20.971,0.2262 7.873,0.3097 4.476,0.6284 1.752,0.5088 1.665,0.7464 1.552,0.967 1.412,1.1634 1.246,1.3394 1.058,1.4919 2.25,4.2135 1.724,4.4542 5.054,17.7504 15.409,61.7361 8.26996,33.544 7.451,30.662 6.16,25.723 2.103,9.603 1.147,5.674 1.002,4.814 0.925,4.339 0.057,0.106 0.086,0.067 1.805,-5.805 1.911,-6.477 2.23,-7.738 15.188,-52.305 18.414,-61.756 19.336,-64.1306 0.832,-2.1567 1.143,-2.0088 0.521,-0.7006 0.584,-0.6487 1.652,-1.5269 1.883,-1.4552 1.842,-1.1454 1.625,-0.786 1.694,-0.6253 1.686,-0.4331 1.723,-0.2493 5.462,-0.2632 14.531,-0.048 14.541,0.049 5.529,0.2681 1.793,0.2563 1.756,0.4405 3.63,1.4492 2.032,1.1391 2.017,1.3849 1.724,1.4129 0.569,0.5684 0.502,0.6279 0.681,1.1423 0.486,1.2375 6.066,20.1998 7.074,24.062 8.513,29.7145 8.388,29.539 7.904,27.818 6.666,23.447 3.129,10.98 2.137,7.541 2.15,7.692 1.878,6.817 1.172,4.393 0.854,3.179 0.768,2.626 0.702,2.227 0.106,0.035 0.099,-0.088 0.079,-0.145 1.084,-4.887 1.171,-5.432 1.332,-6.392 5.223,-22.62 19.107,-74.127 20.645,-79.5774 1.113,-3.6166 1.429,-3.5037 0.743,-1.3475 0.93,-1.2264 2.641,-2.5257 3.214,-2.1674 1.667,-0.8331 1.737,-0.6736 1.295,-0.3383 1.329,-0.1606 7.323,-0.3127 9.872,-0.2085 13.345,-0.064 h 29.926 m -203.534,0.05 5.529,0.2681 m 0,0 1.793,0.2563 m 0,0 1.756,0.4405 m 0,0 3.63,1.4492 m 0,0 2.032,1.1391 m 0,0 2.017,1.3849 m 0,0 1.724,1.4129 m 0,0 0.569,0.5684 m 0,0 0.502,0.6279 m 0,0 0.681,1.1423 m 0,0 0.486,1.2375 m 0,0 6.066,20.1998 m 0,0 7.074,24.062 m 0,0 8.513,29.7145 m 22.958,80.804 3.129,10.98 m -9.795,-34.427 6.666,23.447 m -14.57,-51.265 7.904,27.818 m -16.292,-57.357 8.388,29.539 m 17.699,62.245 2.137,7.541 m 0,0 2.15,7.692 m 0,0 1.878,6.817 m 0,0 1.172,4.393 m 0,0 0.854,3.179 m 0,0 0.768,2.626 m 0,0 0.702,2.227 m 0,0 0.106,0.035 m 0,0 0.099,-0.088 m 64.739,-209.5733 7.323,-0.3127 m 0,0 9.872,-0.2085 m 0,0 13.345,-0.064 m -91.302,287.4205 -19.792,0.107 m -78.03,-204.844 -0.124,-0.015 m 0,0 -0.116,0.045 m 0,0 -0.08,0.096 m 0,0 -0.902,2.211 m 0,0 -1.328,4.431 m 0,0 -1.877,7.227 m 0,0 -6.609,23.956 m 0,0 -22.116,73.272 m 0,0 -23.999,79.035 m 0,0 -1.272,3.591 m 0,0 -1.592,3.461 m 0,0 -0.895,1.449 m 0,0 -1.261,1.564 m 0,0 -1.404,1.44 m 0,0 -1.334,1.065 m 0,0 -0.898,0.535 m 0,0 -0.956,0.424 m 0,0 -0.999,0.308 m 0,0 -1.956,0.386 m 0,0 -1.982,0.212 m 0,0 -7.165,0.238 m 0,0 -20.329,0.041 m -87.53196,-287.4644 20.971,0.2262 m 0,0 7.873,0.3097 m 0,0 4.476,0.6284 m 0,0 1.752,0.5088 m 0,0 1.665,0.7464 m 0,0 1.552,0.967 m 0,0 1.412,1.1634 m 0,0 1.246,1.3394 m 0,0 1.058,1.4919 m 0,0 2.25,4.2135 m 0,0 1.724,4.4542 m 0,0 5.054,17.7504 m 0,0 15.409,61.7361 m 0,0 8.26996,33.544 m 0,0 7.451,30.662 m 0,0 6.16,25.723 m 0,0 2.103,9.603 m 0,0 1.147,5.674 m 0,0 1.002,4.814 m 0.925,4.339 0.057,0.106 m -0.982,-4.445 0.925,4.339 m 0.057,0.106 0.086,0.067 m 0,0 1.805,-5.805 m -128.19098,-204.5476 32.74302,0.2852 m 87.53196,287.4644 h -31.13196 m 259.92396,-0.477 -31.776,0.242 m 75.802,-141.688 -44.026,141.446 m 60.956,-195.83 -16.93,54.384 m 31.299,-100.5259 -14.369,46.1419 m 27.243,-87.4714 -12.874,41.3295 m 13.427,-43.0635 -0.553,1.734 m 1.253,-3.8771 -0.7,2.1431 m -29.226,-2.1431 h 29.926 m -125.205,210.1585 0.079,-0.145 m 63.331,-209.2677 1.329,-0.1606 m -80.554,286.9423 -7.832,-0.17 m -70.096,-204.602 -0.102,-0.072 m -219.01498,-80.5874 -0.454,-2.1902 m 89.14302,287.7496 -44.118,-141.685 m 268.36796,64.043 1.084,-4.887 m 60.952,-204.0424 1.295,-0.3383 m -87.057,286.6117 -4.371,-0.488 m -65.67,-204.002 -0.055,-0.112 m 94.906,122.371 1.171,-5.432 m 58.044,-197.9368 1.737,-0.6736 m -90.133,285.7854 -0.986,-0.239 m -61.885,-192.18 -2.799,-11.583 m 96.022,116.827 1.332,-6.392 m 55.045,-190.7117 1.667,-0.8331 m -89.382,284.8728 -0.949,-0.36 m -55.907,-173.726 -5.029,-18.094 m 94.555,98.852 5.223,-22.62 m 46.608,-165.9243 3.214,-2.1674 m -88.664,283.6797 -0.896,-0.475 m -46.857,-145.191 -8.154,-28.06 m 94.749,58.138 19.107,-74.127 m 24.86,-89.2716 2.641,-2.5257 m -86.346,281.0373 -1.275,-0.922 m -30.852,-94.554 -14.73,-49.715 m 105.702,-44.049 20.645,-79.5774 m 3.285,-8.4678 0.93,-1.2264 m -84.98,277.5896 -1.311,-1.231 m -19.415,-59.414 -10.126,-33.909 m 111.617,-173.3414 1.113,-3.6166 m 1.429,-3.5037 0.743,-1.3475 m -85.361,275.1322 -1.151,-1.332 m -9.498,-29.059 -8.766,-29.023 m 102.604,-210.867 1.429,-3.5037 m -85.769,272.4527 -0.419,-0.594 m -1.306,-2.945 -7.773,-25.52 m 9.079,28.465 -0.364,-0.63 m -0.523,-1.136 -0.419,-1.179 m 0.942,2.315 -0.523,-1.136"
       id="path2004" />
    <path
       style="font-style:normal;font-weight:400;font-size:31.75px;font-family:'Sans Serif';fill:#00694c;fill-opacity:1;fill-rule:evenodd;stroke:none;stroke-width:7;stroke-linecap:round;stroke-linejoin:bevel;stroke-opacity:1"
       d="m 1441.5449,1106.8143 2.4077,-1.8857 m 0,0 2.7681,-2.4535 m 175.7685,158.8067 0.343,101.68 h -73.3636 l -0.2868,-98.346 -0.2154,-59.367 -0.2862,-24.656 -0.4516,-13.989 -0.3237,-3.055 -0.6867,-2.994 -2.1374,-6.142 -2.7329,-5.902 -3.0087,-4.838 -3.6825,-4.347 -4.0738,-3.544 -4.579,-2.862 -5.2028,-2.274 -5.4623,-1.5504 -8.1999,-1.1801 -8.2837,-0.092 -8.4014,0.9841 -8.2155,2.0139 -8.4617,3.18 -8.0434,4.125 -8.3222,5.387 -7.8238,6.088 -5.953,5.063 v 208.298 h -73.3424 v -287.7675 l 25.955,0.2941 22.438,0.626 2.705,0.325 2.626,0.7261 2.4876,1.1109 1.164,0.743 1.0433,0.9046 0.9007,1.0468 0.7385,1.1668 0.5608,1.2619 2.0747,6.3625 1.6906,6.4752 1.0218,4.2681 0.9874,3.7353 0.8991,3.129 0.096,0.2519 0.1331,0.2344 0.1669,0.2114 0.1309,0.1 0.1568,0.049 0.1642,-0.01 0.1518,-0.063 1.9651,-1.3341 2.4077,-1.8857 2.7681,-2.4535 7.3003,-6.3098 7.7185,-5.791 7.5375,-4.7843 7.9252,-4.1102 8.4062,-3.4784 8.6715,-2.7517 9.8786,-2.356 10.0041,-1.7469 4.8929,-0.5035 4.9174,-0.1139 12.5466,0.6924 12.5393,1.6695 4.9581,1.0472 4.8666,1.4126 7.657,2.9199 7.3661,3.5909 7.0166,4.2333 6.3596,4.7062 5.8622,5.3127 5.3074,5.8671 4.9828,6.6988 4.3433,7.1301 3.6665,7.5005 4.9705,13.2078 3.6673,13.627 1.2457,8.704 0.5886,12.85 0.306,23.395 0.2621,66.19 m -175.7687,-158.8047 7.3003,-6.3098 m 0,0 7.7185,-5.791 m 0,0 7.5375,-4.7843 m 0,0 7.9252,-4.1102 m 0,0 8.4062,-3.4784 m 0,0 8.6715,-2.7517 m 0,0 9.8786,-2.356 m 0,0 10.0041,-1.7469 m 0,0 4.8929,-0.5035 m 0,0 4.9174,-0.1139 m 0,0 12.5466,0.6924 m 0,0 12.5393,1.6695 m 0,0 4.9581,1.0472 m 0,0 4.8666,1.4126 m 0,0 7.657,2.9199 m 0,0 7.3661,3.5909 m 0,0 7.0166,4.2333 m 0,0 6.3596,4.7062 m 0,0 5.8622,5.3127 m 0,0 5.3074,5.8671 m 0,0 4.9828,6.6988 m 0,0 4.3433,7.1301 m 0,0 3.6665,7.5005 m 0,0 4.9705,13.2078 m 0,0 3.6673,13.627 m 0,0 1.2457,8.704 m 0,0 0.5886,12.85 m 0,0 0.306,23.395 m 0,0 0.2621,66.19 m 0,0 0.343,101.68 m -148.0556,-228.961 -8.0434,4.125 m 0,0 -8.3222,5.387 m 0,0 -7.8238,6.088 m -53.3404,-74.1124 22.438,0.626 m 0,0 2.705,0.325 m 0,0 2.626,0.7261 m 0,0 2.4876,1.1109 m 0,0 1.164,0.743 m 0,0 1.0433,0.9046 m 0,0 0.9007,1.0468 m 0,0 0.7385,1.1668 m 0,0 0.5608,1.2619 m 0,0 2.0747,6.3625 m 0,0 1.6906,6.4752 m 0,0 1.0218,4.2681 m 0,0 0.9874,3.7353 m 0,0 0.8991,3.129 m 0,0 0.096,0.2519 m -2e-4,0 0.1331,0.2344 m 0,0 0.1669,0.2114 m 0,0 0.1309,0.1 m 0,-3e-4 0.1568,0.049 m 0,10e-5 0.1642,-0.01 m 0,0 0.1518,-0.063 m 0,10e-5 1.9651,-1.3341 m 3.0853,256.1501 h -73.3424 m 73.3424,-208.298 v 208.298 m 5.953,-213.361 -5.953,5.063 m 38.6041,-23.8404 -8.4617,3.18 m -103.4848,228.9584 v -287.7675 m 120.162,53.6152 -8.2155,2.0139 m 16.6169,-2.998 -8.4014,0.9841"
       id="path1999" />
    <path
       style="font-style:normal;font-weight:400;font-size:31.75px;font-family:'Sans Serif';fill:#fdfdfd;fill-rule:evenodd;stroke:none;stroke-width:7;stroke-linecap:round;stroke-linejoin:bevel;stroke-opacity:1;fill-opacity:1"
       d="m 1838.9648,1040.0827 v 322.8817 m 104.299,-323.3742 -104.299,0.4925 m 0,322.8817 h -75.247 m 180.053,-384.81313 -0.503,61.43633 -104.299,0.4925 v 322.8817 h -75.247 v -322.8817 l -104.299,-0.4925 -0.503,-61.43633 h 284.851 m 0,0 -0.503,61.43633 m -179.546,323.3742 v -322.8817 m -104.802,-61.92883 h 284.851 m -180.049,61.92883 -104.299,-0.4925 m 0,0 -0.503,-61.43633"
       id="path1998" />
    <path
       style="font-style:normal;font-weight:400;font-size:31.75px;font-family:'Sans Serif';fill:#fdfdfd;fill-rule:evenodd;stroke:none;stroke-width:7;stroke-linecap:round;stroke-linejoin:bevel;stroke-opacity:1;fill-opacity:1"
       d="m 2050.6128,1157.2838 2.899,-5.44 m 176.518,60.583 0.177,-10.081 -0.32,-10.078 -0.914,-11.017 -1.499,-10.954 -1.948,-9.526 -2.684,-9.345 -3.205,-8.276 -4.724,-9.834 -5.216,-9.4832 -4.733,-7.1419 -6.55,-7.9924 -7.264,-7.3499 -7.834,-6.5544 -8.427,-5.7711 -9.184,-5.0857 -9.618,-4.2086 -10.56,-3.5813 -10.807,-2.7493 -8.887,-1.3275 -13.833,-0.9472 -13.818,-0.4511 -8.705,0.4437 -11.537,1.7658 -11.384,2.5725 -10.561,3.2535 -10.256,4.1161 -9.64,4.8446 -9.194,5.6468 -8.788,6.4681 -8.226,7.1687 -7.563,7.8232 -6.841,8.4622 -6.274,9.2754 -5.5,9.755 -4.807,10.401 -3.967,10.749 -3.166,11.19 -2.307,11.397 -1.302,11.377 -0.595,14.317 0.112,14.67 0.892,12.567 2.209,14.499 3.413,14.263 4.591,13.929 5.498,12.63 6.742,12.012 7.916,11.273 8.715,10.029 9.722,9.057 10.622,7.983 11.468,6.874 12.117,5.653 12.637,4.372 9.935,2.509 10.083,1.833 10.183,1.146 16.405,0.601 16.398,-0.767 16.216,-2.124 15.982,-3.471 9.706,-2.9 9.48,-3.567 9.21,-4.217 9.353,-5.015 7.742,-4.891 7.078,-5.401 7.317,-6.554 8.562,-8.203 -11.746,-15.079 -4.712,-5.905 -4.443,-5.268 -3.823,-4.294 -0.796,-0.757 -0.894,-0.636 -0.816,-0.443 -0.855,-0.359 -1.974,-0.553 -2.361,-0.324 -2.855,-0.106 -3.859,0.265 -1.652,0.319 -1.609,0.49 -4.199,1.804 -8.412,4.286 -17.42,8.446 -6.567,2.693 -6.738,2.234 -6.127,1.53 -6.232,1.02 -7.043,0.648 -7.07,0.235 -8.353,-0.337 -8.291,-1.07 -8.165,-1.795 -7.056,-2.36 -6.709,-3.219 -6.257,-4.027 -5.668,-4.745 -5.028,-5.419 -4.31,-6.007 -4.046,-7.17 -3.375,-7.508 -2.678,-7.785 -1.732,-6.635 -1.587,-7.649 -1.186,-7.143 -0.33,-4.55 v -3.704 h 88.821 l 54.307,-0.041 21.601,-0.212 12.261,-0.381 1.362,-0.156 1.326,-0.347 1.265,-0.53 1.391,-0.857 1.452,-1.205 1.293,-1.342 0.482,-0.617 0.423,-0.659 1.627,-3.427 1.058,-3.644 0.462,-3.765 m -181.924,-49.514 2.507,-5.631 m -4.65,11.505 2.143,-5.874 m -3.885,11.88 1.742,-6.006 m -2.65,9.645 0.908,-3.639 m -1.673,6.841 0.765,-3.202 m -1.394,5.935 0.629,-2.733 m -0.68,3.03 0.051,-0.297 m -0.067,0.597 0.016,-0.3 m 0,0.417 -0.02,-0.117 m 0.079,0.221 -0.059,-0.104 m 0.15,0.181 -0.091,-0.077 m 0.202,0.119 -0.111,-0.042 m 17.59,0.291 -17.479,-0.249 m 37.146,0.432 -19.667,-0.183 m 43.341,0.241 -23.674,-0.058 m 84.775,0.058 h -61.101 m 60.544,-8.334 0.557,8.334 m -1.873,-17.929 1.316,9.595 m -3.952,-18.914 2.636,9.319 m -5.019,-14.957 2.383,5.638 m -5.366,-10.983 2.983,5.345 m -6.53,-10.334 3.547,4.989 m -7.478,-9.383 3.931,4.394 m -8.336,-8.311 4.405,3.917 m -9.23,-7.305 4.825,3.388 m -9.99,-6.192 5.165,2.804 m -10.619,-4.9947 5.454,2.1907 m -11.124,-3.7386 5.67,1.5479 m -11.062,-2.3288 5.392,0.7809 m -12.907,-1.1821 7.515,0.4012 m -15.16,-0.4179 7.645,0.017 m -13.559,0.4433 5.914,-0.4603 m -12.879,1.9527 6.965,-1.4924 m -14.537,4.2172 7.572,-2.7248 m -14.785,6.2597 7.213,-3.5349 m -13.086,7.4789 5.873,-3.944 m -9.622,7.283 3.749,-3.339 m -7.101,7.077 3.352,-3.738 m -6.77,8.354 3.418,-4.616 m -6.48,9.475 3.062,-4.859 m 55.426,-75.8589 -13.818,-0.4511 m 27.651,1.3983 -13.833,-0.9472 m 22.72,2.2747 -8.887,-1.3275 m 19.694,4.0768 -10.807,-2.7493 m 21.367,6.3306 -10.56,-3.5813 m 20.178,7.7899 -9.618,-4.2086 m 18.802,9.2943 -9.184,-5.0857 m 17.611,10.8568 -8.427,-5.7711 m 16.261,12.3255 -7.834,-6.5544 m 15.098,13.9043 -7.264,-7.3499 m 13.814,15.3423 -6.55,-7.9924 m 11.283,15.1343 -4.733,-7.1419 m 9.949,16.6251 -5.216,-9.4832 m 9.94,19.3172 -4.724,-9.834 m 7.929,18.11 -3.205,-8.276 m 5.889,17.621 -2.684,-9.345 m 4.632,18.871 -1.948,-9.526 m 3.447,20.48 -1.499,-10.954 m 2.413,21.971 -0.914,-11.017 m 1.234,21.095 -0.32,-10.078 m 0.143,20.159 0.177,-10.081 m -0.639,13.846 0.462,-3.765 m -1.52,7.409 1.058,-3.644 m -2.685,7.071 1.627,-3.427 m -2.05,4.086 0.423,-0.659 m -0.905,1.276 0.482,-0.617 m -1.775,1.959 1.293,-1.342 m -2.745,2.547 1.452,-1.205 m -2.843,2.062 1.391,-0.857 m -2.656,1.387 1.265,-0.53 m -2.591,0.877 1.326,-0.347 m -179.678,1.139 h 88.821 m -88.821,3.704 v -3.704 m 0.33,8.254 -0.33,-4.55 m 1.516,11.693 -1.186,-7.143 m 2.773,14.792 -1.587,-7.649 m 3.319,14.284 -1.732,-6.635 m 4.41,14.42 -2.678,-7.785 m 6.053,15.293 -3.375,-7.508 m 7.421,14.678 -4.046,-7.17 m 8.356,13.177 -4.31,-6.007 m 9.338,11.426 -5.028,-5.419 m 10.696,10.164 -5.668,-4.745 m 11.925,8.772 -6.257,-4.027 m 12.966,7.246 -6.709,-3.219 m 13.765,5.579 -7.056,-2.36 m 15.221,4.155 -8.165,-1.795 m 16.456,2.865 -8.291,-1.07 m 16.644,1.407 -8.353,-0.337 m 15.423,0.102 -7.07,0.235 m 14.113,-0.883 -7.043,0.648 m 13.275,-1.668 -6.232,1.02 m 12.359,-2.55 -6.127,1.53 m 12.865,-3.764 -6.738,2.234 m 13.305,-4.927 -6.567,2.693 m 23.987,-11.139 -17.42,8.446 m 25.832,-12.732 -8.412,4.286 m 12.611,-6.09 -4.199,1.804 m 5.808,-2.294 -1.609,0.49 m 3.261,-0.809 -1.652,0.319 m 5.511,-0.584 -3.859,0.265 m 6.714,-0.159 -2.855,-0.106 m 5.216,0.43 -2.361,-0.324 m 4.335,0.877 -1.974,-0.553 m 2.829,0.912 -0.855,-0.359 m 1.671,0.802 -0.816,-0.443 m 1.71,1.079 -0.894,-0.636 m 1.69,1.393 -0.796,-0.757 m 4.619,5.051 -3.823,-4.294 m 8.266,9.562 -4.443,-5.268 m 9.155,11.173 -4.712,-5.905 m 16.458,20.984 -11.746,-15.079 m 3.184,23.282 8.562,-8.203 m -15.879,14.757 7.317,-6.554 m -14.395,11.955 7.078,-5.401 m -175.895,-247.5774 -9.194,5.6468 m 18.834,-10.4914 -9.64,4.8446 m 127.402,89.7908 0.557,8.334 h -61.101 l -23.674,-0.058 -19.667,-0.183 -17.479,-0.249 -0.111,-0.042 -0.091,-0.077 -0.059,-0.104 -0.02,-0.117 0.016,-0.3 0.051,-0.297 0.629,-2.733 0.765,-3.202 0.908,-3.639 1.742,-6.006 2.143,-5.874 2.507,-5.631 2.899,-5.44 3.062,-4.859 3.418,-4.616 3.352,-3.738 3.749,-3.339 5.873,-3.944 7.213,-3.5349 7.572,-2.7248 6.965,-1.4924 5.914,-0.4603 7.645,0.017 7.515,0.4012 5.392,0.7809 5.67,1.5479 5.454,2.1907 5.165,2.804 4.825,3.388 4.405,3.917 3.931,4.394 3.547,4.989 2.983,5.345 2.383,5.638 2.636,9.319 1.316,9.595 m 54.388,51.5163 1.362,-0.156 m -192.346,-135.5046 -8.788,6.4681 m 187.511,129.5735 12.261,-0.381 m -33.862,0.593 21.601,-0.212 m -75.908,0.253 54.307,-0.041"
       id="path1981" />
    <path
       style="font-style:normal;font-weight:400;font-size:31.75px;font-family:'Sans Serif';fill:#fdfdfd;fill-rule:evenodd;stroke:none;stroke-width:7;stroke-linecap:round;stroke-linejoin:bevel;stroke-opacity:1;fill-opacity:1"
       d="m 2448.5708,1288.4598 0.696,-0.417 m 0,0 0.739,-0.332 m 38.3,-176.5353 0.015,0.2934 -0.034,0.2918 -0.082,0.282 -0.864,1.8493 -1.116,1.7091 -10.065,13.1427 -10.233,13.125 -1.288,1.4 -1.487,1.185 -0.781,0.469 -0.828,0.38 -0.928,0.32 -0.952,0.237 -2.36,0.311 -3.114,0.097 -3.967,-0.169 -1.306,-0.203 -1.267,-0.378 -1.399,-0.606 -1.332,-0.74 -5.13,-3.305 -11.575,-7.097 -4.514,-2.287 -4.696,-1.8822 -4.417,-1.3017 -4.525,-0.8477 -5.261,-0.5322 -5.284,-0.1777 -5.7,0.1985 -5.672,0.5946 -4.729,0.9415 -4.591,1.476 -4.216,1.9289 -3.953,2.423 -4.086,3.136 -3.793,3.485 -3.733,4.127 -3.319,4.467 -3.058,4.995 -2.635,5.231 -2.452,5.992 -2.004,6.156 -1.849,7.148 -1.49,7.232 -0.915,6.3 -0.482,6.348 -0.418,19.512 0.37,19.529 0.467,6.399 0.896,6.354 2.102,9.742 2.847,9.551 3.577,9.303 3.749,7.299 4.713,6.717 5.588,6.009 5.763,4.588 6.426,3.602 6.921,2.524 7.671,1.568 7.812,0.525 7.812,-0.528 3.862,-0.7 3.783,-1.042 7.718,-3.153 7.94,-4.639 8.315,-6.216 3.535,-2.828 3.383,-2.539 2.9,-2.038 0.696,-0.417 0.739,-0.332 1.632,-0.5 1.684,-0.282 4.131,-0.104 4.034,0.505 1.539,0.435 1.454,0.663 1.258,0.799 1.15,0.949 1.023,1.083 10.133,12.312 v 30.046 l -4.132,3.745 -6.197,5.002 -8.724,5.81 -9.203,5.018 -9.954,4.393 -10.271,3.593 -10.843,2.869 -11.03,2.032 -11.386,1.233 -11.446,0.412 -11.051,-0.529 -10.951,-1.58 -10.513,-2.597 -10.195,-3.652 -9.767,-4.67 -9.242,-5.639 -8.823,-6.662 -8.146,-7.475 -7.106,-7.731 -6.03,-7.757 -5.414,-8.423 -5.252,-9.749 -4.24,-9.234 -3.66,-9.48 -3.045,-9.638 -2.431,-9.811 -1.91,-10.401 -1.285,-10.496 -0.795,-11.521 -0.265,-11.545 0.638,-17.258 1.911,-17.164 1.885,-10.357 2.548,-10.213 3.201,-10.029 3.607,-9.135 4.235,-8.861 4.843,-8.5449 5.278,-7.8973 5.87,-7.4671 6.429,-6.9924 7.239,-6.7006 7.775,-6.0696 8.15,-5.3043 8.583,-4.5703 9.113,-3.8805 9.412,-3.0848 10.1,-2.4348 10.253,-1.6771 9.282,-0.6122 13.925,0.1637 13.849,0.6741 8.859,1.1672 11.606,2.9118 11.121,4.0473 10.754,5.24 10.511,6.4799 7.559,5.6046 7.678,6.5668 6.833,6.4092 0.194,0.2209 0.154,0.2501 0.11,0.2723 0.064,0.2867 m -38.3,176.5353 1.632,-0.5 m 0,0 1.684,-0.282 m 0,0 4.131,-0.104 m 0,0 4.034,0.505 m -42.767,76.717 -11.03,2.032 m 0,0 -11.386,1.233 m 0,0 -11.446,0.412 m 0,0 -11.051,-0.529 m 0,0 -10.951,-1.58 m 0,0 -10.513,-2.597 m 0,0 -10.195,-3.652 m 0,0 -9.767,-4.67 m 0,0 -9.242,-5.639 m 0,0 -8.823,-6.662 m 0,0 -8.146,-7.475 m 0,0 -7.106,-7.731 m 0,0 -6.03,-7.757 m 0,0 -5.414,-8.423 m 0,0 -5.252,-9.749 m 0,0 -4.24,-9.234 m 0,0 -3.66,-9.48 m 0,0 -3.045,-9.638 m 0,0 -2.431,-9.811 m 0,0 -1.91,-10.401 m 0,0 -1.285,-10.496 m 0,0 -0.795,-11.521 m 0,0 -0.265,-11.545 m 0,0 0.638,-17.258 m 0,0 1.911,-17.164 m 0,0 1.885,-10.357 m 0,0 2.548,-10.213 m 0,0 3.201,-10.029 m 0,0 3.607,-9.135 m 0,0 4.235,-8.861 m 0,0 4.843,-8.5449 m 0,0 5.278,-7.8973 m 0,0 5.87,-7.4671 m 0,0 6.429,-6.9924 m 0,0 7.239,-6.7006 m 0,0 7.775,-6.0696 m 0,0 8.15,-5.3043 m 0,0 8.583,-4.5703 m 0,0 9.113,-3.8805 m 0,0 9.412,-3.0848 m 0,0 10.1,-2.4348 m 0,0 10.253,-1.6771 m 0,0 9.282,-0.6122 m 0,0 13.925,0.1637 m 0,0 13.849,0.6741 m 0,0 8.859,1.1672 m 0,0 11.606,2.9118 m 54.993,35.6712 -0.034,0.2918 m 0,0 -0.082,0.282 m 0,0 -0.864,1.8493 m 0,0 -1.116,1.7091 m 0,0 -10.065,13.1427 m 0,0 -10.233,13.125 m 0,0 -1.288,1.4 m 0,0 -1.487,1.185 m 0,0 -0.781,0.469 m 0,0 -0.828,0.38 m 0,0 -0.928,0.32 m 0,0 -0.952,0.237 m 0,0 -2.36,0.311 m 0,0 -3.114,0.097 m 0,0 -3.967,-0.169 m 0,0 -1.306,-0.203 m 0,0 -1.267,-0.378 m 0,0 -1.399,-0.606 m 0,0 -1.332,-0.74 m 0,0 -5.13,-3.305 m 0,0 -11.575,-7.097 m 0,0 -4.514,-2.287 m 0,0 -4.696,-1.8822 m 0,0 -4.417,-1.3017 m 0,0 -4.525,-0.8477 m 0,0 -5.261,-0.5322 m 0,0 -5.284,-0.1777 m 0,0 -5.7,0.1985 m 0,0 -5.672,0.5946 m 0,0 -4.729,0.9415 m 0,0 -4.591,1.476 m 0,0 -4.216,1.9289 m 0,0 -3.953,2.423 m 0,0 -4.086,3.136 m 0,0 -3.793,3.485 m 0,0 -3.733,4.127 m 0,0 -3.319,4.467 m 0,0 -3.058,4.995 m 0,0 -2.635,5.231 m 0,0 -2.452,5.992 m 0,0 -2.004,6.156 m 0,0 -1.849,7.148 m 0,0 -1.49,7.232 m 0,0 -0.915,6.3 m 0,0 -0.482,6.348 m 0,0 -0.418,19.512 m 70.576,92.482 3.783,-1.042 m 0,0 7.718,-3.153 m 0,0 7.94,-4.639 m 0,0 8.315,-6.216 m 0,0 3.535,-2.828 m 0,0 3.383,-2.539 m 0,0 2.9,-2.038 m 12.916,-1.13 1.539,0.435 m -33.463,73.413 -10.843,2.869 m 14.608,-288.2491 11.121,4.0473 m 43.857,31.3305 0.015,0.2934 m -147.9,106.9639 0.37,19.529 m 66.344,73.653 3.862,-0.7 m 52.029,-23.15 1.454,0.663 m -24.646,69.157 -10.271,3.593 m 14.886,-281.3328 10.754,5.24 m 33.039,25.8038 0.064,0.2867 m -147.515,126.7863 0.467,6.399 m 58.065,67.782 7.812,-0.528 m 57.345,-23.187 1.258,0.799 m -15.95,63.965 -9.954,4.393 m 15.369,-272.4998 10.511,6.4799 m 22.418,19.0516 0.11,0.2723 m -146.984,133.472 0.896,6.354 m 49.357,60.903 7.812,0.525 m 66.415,-22.916 1.15,0.949 m -7.897,57.998 -9.203,5.018 m 15.926,-261.6269 7.559,5.6046 m 14.705,13.1969 0.154,0.2501 m -145.978,140.0983 2.102,9.742 m 39.584,49.593 7.671,1.568 m 75.377,-21.442 1.023,1.083 m -0.196,51.105 -8.724,5.81 m 14.282,-251.0043 7.678,6.5668 m 6.833,6.4092 0.194,0.2209 m -143.722,150.0904 2.847,9.551 m 29.816,37.518 6.921,2.524 m 84.071,-18.791 10.133,12.312 m -4.132,33.791 -6.197,5.002 m 13.236,-238.6275 6.833,6.4092 m -140.681,159.8623 3.577,9.303 m 19.813,24.613 6.426,3.602 m 101.125,-3.955 v 30.046 m 0,0 -4.132,3.745 m -123.232,-58.051 3.749,7.299 m 10.301,12.726 5.763,4.588 m -16.064,-17.314 4.713,6.717 m 0,0 5.588,6.009"
       id="path1980" />
    <path
       style="font-style:normal;font-weight:400;font-size:31.75px;font-family:'Sans Serif';fill:#fdfdfd;fill-rule:evenodd;stroke:none;stroke-width:7;stroke-linecap:round;stroke-linejoin:bevel;stroke-opacity:1;fill-opacity:1"
       d="m 2703.2868,1145.2798 -2.93,-3.972 m 0,0 -3.44,-3.535 m 88.84,128.247 v 96.942 h -73.29 l -0.28,-98.346 -0.22,-59.367 -0.28,-24.656 -0.46,-13.989 -0.32,-3.055 -0.69,-2.994 -2.92,-7.882 -4.01,-7.393 -2.93,-3.972 -3.44,-3.535 -3.89,-3.031 -4.33,-2.511 -4.63,-1.9092 -4.84,-1.2724 -8.62,-1.0808 -8.69,0.049 -6.42,0.766 -6.33,1.3757 -6.44,2.0214 -6.25,2.556 -6.22,3.164 -5.93,3.659 -5.74,4.196 -5.4,4.624 -5.55,5.142 v 207.44 h -73.34 V 945.76627 h 73.34 v 158.05413 l 9.52,-7.4142 12.03,-8.5553 11.8,-6.7147 11.79,-4.994 12.01,-3.3939 10.83,-1.4639 14.42,-0.3572 14.28,0.6059 10.26,1.6596 9.33,2.8483 9,3.7888 8.55,4.6896 7.71,5.3851 7.04,6.2312 6.28,6.9955 5.75,8.0392 4.85,8.6082 3.91,9.0783 3.41,10.5059 2.6,10.738 1.76,10.906 0.44,6.551 0.29,24.945 0.2,32.005 0.06,41.512 m -88.84,-128.247 -3.89,-3.031 m 0,0 -4.33,-2.511 m -71.54,-35.8246 12.03,-8.5553 m 119.98,2.0536 7.04,6.2312 m 0,0 6.28,6.9955 m 0,0 5.75,8.0392 m 0,0 4.85,8.6082 m 0,0 3.91,9.0783 m 0,0 3.41,10.5059 m 0,0 2.6,10.738 m 0,0 1.76,10.906 m 0,0 0.44,6.551 m 0,0 0.29,24.945 m 0,0 0.2,32.005 m 0,0 0.06,41.512 m -73.57,-1.404 -0.22,-59.367 m 0.5,157.713 -0.28,-98.346 m 73.57,1.404 v 96.942 m -73.79,-157.713 -0.28,-24.656 m 0,0 -0.46,-13.989 m 0,0 -0.32,-3.055 m 0,0 -0.69,-2.994 m 0,0 -2.92,-7.882 m 0,0 -4.01,-7.393 m -95.65,-41.4594 9.52,-7.4142 m -9.52,-150.63993 v 158.05413 m -73.34,-158.05413 h 73.34 m -73.34,417.19553 V 945.76627 m 154.4,186.46453 -4.63,-1.9092 m -54.88,-42.4707 11.8,-6.7147 m 100.47,3.3832 7.71,5.3851 m 36.59,273.0573 h -73.29 m -104.83,0 h -73.34 m 149.77,-232.6402 -4.84,-1.2724 m -38.24,-47.913 11.79,-4.994 m 80.13,3.6876 8.55,4.6896 m -133.82,71.0024 v 207.44 m 71.59,-233.9126 -8.62,-1.0808 m -17.83,-51.8262 12.01,-3.3939 m 59.12,3.2927 9,3.7888 m -119.72,70.55 -5.55,5.142 m 62.97,-27.5534 -8.69,0.049 m 2.87,-55.2691 10.83,-1.4639 m 38.96,1.9083 9.33,2.8483 m -48.29,-4.7566 14.42,-0.3572 m 14.28,0.6059 10.26,1.6596 m -24.54,-2.2655 14.28,0.6059"
       id="path1978" />
    <path
       style="font-style:normal;font-weight:400;font-size:31.75px;font-family:'Sans Serif';fill:#00694c;fill-opacity:1;fill-rule:evenodd;stroke:none;stroke-width:7;stroke-linecap:round;stroke-linejoin:bevel;stroke-opacity:1"
       d="m 461.23682,783.20177 0.2,12.78 m 0,0 0.15,14.364 m 402.528,244.32223 -0.324,22.929 -2.132,23.4294 -3.85,23.209 -7.158,27.7774 -9.952,26.902 -12.82,26.308 -15.287,24.955 -17.717,23.528 -19.881,21.732 -21.712,19.555 -23.518,17.342 -13.98,8.763 -14.426,8.009 -14.564,7.075 -14.938,6.246 -15.374,5.439 -15.653,4.574 -16.396,3.859 -16.57,3.025 -15.842,1.704 -21.196,0.811 -21.34,-0.074 -16.393,-1.138 -13.365,-1.797 -12.89,-2.265 -12.46,-2.741 -12.04,-3.221 -22.29,-7.48 -21.64,-9.205 -20.9,-10.892 -20,-12.487 -18.97,-14.016 -17.82,-15.449 -16.56,-16.778 -15.2,-18.017 -9.9,-13.513 -9.09,-14.07 -8.57,-15.042 -7.76,-15.476 -6.85,-15.699 -5.99,-16.043 -4.78,-15.488 -3.79,-15.7577 -3.7,-21.7557 -2.14,-21.9647 -0.55,-22.0612 1.04,-21.7888 2.65,-21.6518 4.26,-21.39543 5.82,-21.0236 7.37,-20.5339 8.87,-19.9314 10.42,-19.4598 11.79,-18.665 13.09,-17.773 9.41,-10.936 13.4,-13.871 13.86,-13.387 10.87,-9.355 17.49,-12.911 18.06,-11.507 18.77,-10.174 19.6,-8.919 2.97,-1.212 2.62,-1.028 2.24,-0.85 0.25,-0.072 0.25,-0.035 0.13,0.025 0.13,0.119 0.04,0.128 0.2,12.78 0.15,14.364 0.04,17.072 -0.02,44.53 -8.31,4.906 -14.77,9.798 -15.4,12.367 -14.53,13.608 -12.15,13.557 -11.97,16.205 -10.46,17.2198 -8.86,18.0938 -7.1,18.6561 -5.33,19.23453 -3.53,19.6469 -1.68,19.8359 0.18,19.9062 2.02,19.8033 3.87,19.6235 5.66,19.185 7.39,18.585 11.61,22.149 14.09,20.655 16.5,19.079 18.55,17.095 20.34,14.872 21.88,12.481 22.92,9.774 23.9,7.031 23.703,4.004 24.976,1.337 24.948,-1.341 23.622,-4.008 18.278,-5.19 18.511,-7.105 17.815,-8.621 16.192,-9.734 17.62,-13.073 16.266,-14.723 14.758,-16.234 12.972,-17.452 11.165,-18.659 9.248,-19.68 7.199,-20.4116 5.114,-21.031 2.978,-21.4381 0.819,-21.6601 -1.35,-21.6335 -3.505,-21.3905 -5.046,-18.47333 -7.445,-19.667 -9.072,-19.0808 -9.95,-16.711 -14.48,-19.1531 -17.175,-18.194 -18.734,-16.141 -19.15,-12.997 -8.312,-4.906 -0.045,-89.187 2.143,0.63 1.401,0.492 3.969,1.64 4.718,1.995 5.185,2.245 24.388,12.106 23.101,14.411 22.195,16.918 20.582,18.847 18.875,20.695 16.944,22.303 14.559,23.353 12.287,24.6246 8.592,21.6471 6.936,22.2329 5.094,22.27503 3.302,22.6102 1.497,22.8824 m -402.528,-244.32223 0.04,17.072 m -8.33,49.436 -14.77,9.798 m 23.08,-14.704 -8.31,4.906 m 8.33,-49.436 -0.02,44.53 m -23.08,14.704 -15.4,12.367 m 0,0 -14.53,13.608 m 0,0 -12.15,13.557 m 0,0 -11.97,16.205 m 0,0 -10.46,17.2198 m 0,0 -8.86,18.0938 m 0,0 -7.1,18.6561 m 0,0 -5.33,19.23453 m 0,0 -3.53,19.6469 m 0,0 -1.68,19.8359 m 0,0 0.18,19.9062 m 0,0 2.02,19.8033 m 0,0 3.87,19.6235 m 0,0 5.66,19.185 m 0,0 7.39,18.585 m 0,0 11.61,22.149 m 0,0 14.09,20.655 m 0,0 16.5,19.079 m 0,0 18.55,17.095 m 0,0 20.34,14.872 m 0,0 21.88,12.481 m 0,0 22.92,9.774 m 0,0 23.9,7.031 m 0,0 23.703,4.004 m 0,0 24.976,1.337 m 0,0 24.948,-1.341 m 0,0 23.622,-4.008 m 0,0 18.278,-5.19 m 38.536,-486.72603 1.401,0.492 m 0,0 3.969,1.64 m 0,0 4.718,1.995 m 0,0 5.185,2.245 m 0,0 24.388,12.106 m 0,0 23.101,14.411 m 0,0 22.195,16.918 m 0,0 20.582,18.847 m 0,0 18.875,20.695 m 0,0 16.944,22.303 m 0,0 14.559,23.353 m 0,0 12.287,24.6246 m 0,0 8.592,21.6471 m 0,0 6.936,22.2329 m 0,0 5.094,22.27503 m 0,0 3.302,22.6102 m 0,0 1.497,22.8824 m 0,0 -0.324,22.929 m 0,0 -2.132,23.4294 m 0,0 -3.85,23.209 m 0,0 -7.158,27.7774 m 0,0 -9.952,26.902 m 0,0 -12.82,26.308 m 0,0 -15.287,24.955 m 0,0 -17.717,23.528 m 0,0 -19.881,21.732 m 0,0 -21.712,19.555 m 0,0 -23.518,17.342 m 0,0 -13.98,8.763 m 0,0 -14.426,8.009 m 0,0 -14.564,7.075 m 0,0 -14.938,6.246 m 0,0 -15.374,5.439 m 0,0 -15.653,4.574 m 0,0 -16.396,3.859 m 0,0 -16.57,3.025 m 0,0 -15.842,1.704 m 0,0 -21.196,0.811 m 0,0 -21.34,-0.074 m 0,0 -16.393,-1.138 m 0,0 -13.365,-1.797 m 0,0 -12.89,-2.265 m 0,0 -12.46,-2.741 m 0,0 -12.04,-3.221 m 0,0 -22.29,-7.48 m 0,0 -21.64,-9.205 m 0,0 -20.9,-10.892 m 0,0 -20,-12.487 m 0,0 -18.97,-14.016 m 0,0 -17.82,-15.449 m 0,0 -16.56,-16.778 m 0,0 -15.2,-18.017 m 132.11,-463.32503 0.13,0.119 m 0,0 0.04,0.128 m 207.11,-0.441 2.143,0.63 m -38.536,486.72603 18.511,-7.105 m -321.508,-16.732 -9.9,-13.513 m 141.88,-449.83703 0.13,0.025 m 207.325,88.993 -0.045,-89.187 m -17.882,480.25103 17.815,-8.621 m -349.223,-21.624 -9.09,-14.07 m 150.72,-435.73203 0.25,-0.035 m 215.767,93.924 -8.312,-4.906 m -0.112,382.44303 16.192,-9.734 m -374.505,-25.96 -8.57,-15.042 m 159.04,-420.61803 0.25,-0.072 m 223.785,461.69203 17.62,-13.073 m -400.695,-27.929 -7.76,-15.476 m 164.56,-404.29203 2.24,-0.85 m 241.655,448.54703 16.266,-14.723 m -424.721,-28.682 -6.85,-15.699 m 168.79,-387.56503 2.62,-1.028 m 260.161,432.97403 14.758,-16.234 m -446.329,-28.147 -5.99,-16.043 m 171.81,-370.31003 2.97,-1.212 m 277.539,415.71203 12.972,-17.452 m -465.291,-26.738 -4.78,-15.488 m 156.99,-345.90303 19.6,-8.919 m 293.481,397.04803 11.165,-18.659 m -481.236,-23.567 -3.79,-15.7577 m 142.01,-319.97133 18.77,-10.174 m 324.246,369.47003 9.248,-19.68 m -494.274,-19.6447 -3.7,-21.7557 m 127.65,-286.70863 18.06,-11.507 m 352.264,339.61603 7.199,-20.4116 m -505.173,-20.9888 -2.14,-21.9647 m 112.3,-251.83293 17.49,-12.911 m 377.523,307.69743 5.114,-21.031 m -512.427,-21.9225 -0.55,-22.0612 m 101.98,-220.41673 10.87,-9.355 m 400.127,273.75543 2.978,-21.4381 m -515.955,-22.5456 1.04,-21.7888 m 87.08,-185.24093 13.86,-13.387 m 413.975,242.96233 0.819,-21.6601 m -515.734,-22.6743 2.65,-21.6518 m 71.03,-149.71813 13.4,-13.871 m 428.654,207.91523 -1.35,-21.6335 m -511.734,-22.6926 4.26,-21.39543 m 57.36,-117.3867 9.41,-10.936 m 440.704,172.41073 -3.505,-21.3905 m -503.969,-22.69753 5.82,-21.0236 m 38.45,-78.5901 13.09,-17.773 m 446.609,140.08423 -5.046,-18.47333 m -493.103,-25.2478 7.37,-20.5339 m 19.29,-39.3912 11.79,-18.665 m 454.653,103.8379 -7.445,-19.667 m -478.288,-26.1147 8.87,-19.9314 m 0,0 10.42,-19.4598 m 458.998,65.5059 -9.072,-19.0808 m 0,0 -9.95,-16.711 m 0,0 -14.48,-19.1531 m 0,0 -17.175,-18.194 m 0,0 -18.734,-16.141 m 0,0 -19.15,-12.997"
       id="path995"
       inkscape:export-filename="Page.svg"
       inkscape:export-xdpi="16"
       inkscape:export-ydpi="16" />
  </g>
  <metadata
     id="metadata2038">
    <rdf:RDF>
      <cc:Work
         rdf:about="">
        <dc:title>FreeCAD SVG Export</dc:title>
      </cc:Work>
    </rdf:RDF>
  </metadata>
</svg>
